<svg width="164" height="60" viewBox="0 0 164 60" fill="none" xmlns="http://www.w3.org/2000/svg">
<g clip-path="url(#clip0_1309_929)">
<path d="M87.9422 40.9285C86.2842 41.9271 85.0477 43.5048 84.5979 45.8975C84.5347 46.1573 84.5668 46.4309 84.6885 46.6694C84.8102 46.908 85.0136 47.0959 85.2624 47.1996C85.5112 47.3033 85.789 47.3161 86.0464 47.2356C86.3038 47.1551 86.5239 46.9866 86.6674 46.7603C87.6457 45.3622 88.6017 43.9642 89.5558 42.5661C95.1611 39.4625 111.642 43.8424 117.592 46.219C118.944 46.7603 119.531 44.5913 118.197 44.058C111.904 41.5416 105.111 40.1476 98.3681 39.4845C96.1958 39.2708 93.7613 39.2129 91.5405 39.6343C94.7456 34.8749 97.995 30.1336 101.801 25.8416C104.642 22.6166 107.838 19.7171 111.332 17.1977C112.929 16.0533 115.138 14.5315 117.469 13.5409C119.96 13.6993 122.458 13.6839 124.946 13.495C126.544 13.3631 127.076 12.0969 125.955 11.4099C123.149 9.71425 119.92 9.99185 116.727 11.2521C105.734 10.4971 94.917 7.25771 83.8738 8.32821C82.4357 8.47001 82.4216 10.7129 83.8738 10.5711C93.6564 9.6164 103.265 12.055 112.977 13.1494C109.024 15.5461 105.422 18.9193 103.116 21.1842C97.17 27.03 92.6015 34.0481 87.9522 40.9344L87.9422 40.9285ZM130.703 29.9439C131.865 29.4066 132.254 29.4066 132.484 29.9439C132.639 30.2514 132.331 30.6329 131.788 31.0943C131.322 31.5536 130.937 31.9371 131.014 31.9371C131.09 32.015 132.099 32.3205 132.175 33.1653C132.407 34.5474 133.027 33.6267 136.98 32.3205C138.142 31.9371 139.148 31.8612 139.459 31.9371C140.001 32.0909 139.148 32.5522 137.442 33.5488L135.737 34.3936C135.582 34.5474 134.342 35.1605 133.567 35.544C132.173 36.3109 131.399 36.6185 130.78 37.1557C129.539 38.3061 128.299 39.4565 127.679 39.9179C127.06 40.3792 126.441 40.8386 126.207 41.0682C125.277 41.989 122.722 43.1393 121.634 43.1393C120.164 43.1393 119.698 42.9856 119.39 42.2186C118.847 40.7607 121.558 36.5406 124.432 34.3157C125.441 33.4729 126.368 32.7819 126.6 32.6301C127.133 32.1008 130.382 30.1256 130.707 29.9439H130.703ZM126.209 35.536C125.59 35.536 122.724 39.7561 123.111 40.1296C123.42 40.4351 125.511 39.2848 126.828 37.9806C127.45 37.3674 127.99 36.7543 127.99 36.6005C127.99 36.4467 127.605 36.1392 127.139 35.9095C126.864 35.7108 126.545 35.5794 126.209 35.526V35.536ZM158.772 32.4723C158.223 32.6001 156.717 33.3591 155.365 34.2019C153.731 35.2644 152.005 36.7383 151.734 37.1517C152.969 36.6191 154.168 36.0073 155.323 35.3203C157.033 34.3377 158.77 32.8378 158.776 32.4723H158.772ZM149.853 43.8184C148.949 43.8438 148.066 43.5532 147.358 42.9975C146.732 42.5422 146.472 42.2306 146.387 41.7213H146.371C140.385 44.5893 139.895 40.4411 141.329 36.6964C138.101 39.1769 134.055 42.7838 133.261 42.8098C128.561 42.9576 140.264 31.8112 141.113 30.7148C141.167 30.5839 141.25 30.466 141.354 30.3689C141.458 30.2718 141.582 30.1977 141.717 30.1516C141.852 30.1055 141.996 30.0885 142.138 30.1016C142.281 30.1146 142.419 30.1575 142.543 30.2275C142.799 30.3837 142.987 30.6288 143.071 30.915C143.154 31.2011 143.127 31.5078 142.995 31.7753C142.408 32.5602 141.823 33.2852 141.24 33.9722C141.764 33.6087 142.323 33.2392 142.928 32.8618H142.888C145.28 31.5057 145.675 33.379 144.3 35.9055C143.995 36.4687 142.365 39.4865 142.807 40.3473C143.614 40.8326 146.841 38.8753 147.94 38.1943C148.124 38.0105 148.344 37.7949 148.594 37.5592C150.289 35.936 152.13 34.4699 154.094 33.1793C154.474 32.9237 157.911 30.9365 158.849 30.7068C159.397 30.5989 160.42 30.3952 161.079 30.7228C161.255 30.8107 161.402 30.9445 161.506 31.1097C161.61 31.2748 161.666 31.4649 161.668 31.6595C161.668 32.3864 160.702 33.6227 159.318 34.6552C157.816 35.7837 155.161 37.3015 152.037 38.8194C150.04 39.818 149.818 40.2174 149.719 40.7247C149.711 40.893 149.736 41.0614 149.795 41.2196C149.853 41.3779 149.944 41.5227 150.06 41.6454C150.244 41.7653 150.849 42.0049 152.455 41.5775C155.055 40.8706 157.532 39.7785 159.803 38.3381C160.972 37.5832 162.862 36.4727 163.318 36.3049C163.574 36.1951 163.742 36.1791 163.857 36.253C163.901 36.2881 163.936 36.3338 163.959 36.3858C163.981 36.4377 163.99 36.4944 163.984 36.5506C163.984 37.2236 158.74 40.8046 156.18 42.0169C153.99 43.0495 153.356 43.2532 151.958 43.5168C151.27 43.6814 150.566 43.7725 149.859 43.7884L149.853 43.8184ZM63.3224 32.4803C62.7738 32.6081 61.265 33.3671 59.9136 34.2099C58.2798 35.2724 56.5553 36.7463 56.283 37.1597C57.5173 36.627 58.7153 36.0152 59.8692 35.3283C61.5817 34.3457 63.3184 32.8458 63.3244 32.4803H63.3224ZM54.3829 43.8184C53.4802 43.8442 52.5973 43.5535 51.8899 42.9975C51.0831 42.4104 50.8814 42.0609 50.8814 41.218C50.8814 40.7906 50.9863 40.4052 51.2666 39.794C51.547 39.1829 51.8435 38.7954 53.1163 37.5791C54.812 35.9564 56.6538 34.4904 58.6187 33.1993C58.9999 32.9416 63.1409 30.7747 63.3728 30.7268C63.9214 30.6189 64.9441 30.4152 65.5915 30.7427C65.7673 30.8302 65.9154 30.9639 66.0196 31.1291C66.1238 31.2943 66.1802 31.4847 66.1825 31.6794C66.1825 32.4064 65.2164 33.6427 63.8307 34.6752C62.328 35.8036 59.6756 37.3215 56.5512 38.8394C54.5524 39.838 54.3325 40.2374 54.2337 40.7447C54.2248 40.913 54.2504 41.0813 54.309 41.2396C54.3676 41.3978 54.4579 41.5427 54.5746 41.6654C54.7561 41.7852 55.3632 42.0249 56.9688 41.5975C59.569 40.8906 62.0464 39.7984 64.3168 38.3581C65.4867 37.6031 67.3746 36.4927 67.8304 36.3249C68.0886 36.2151 68.256 36.1991 68.369 36.273C68.4143 36.3076 68.4499 36.3531 68.4725 36.4052C68.495 36.4573 68.5038 36.5142 68.4981 36.5706C68.4981 37.2436 63.2538 40.8246 60.6942 42.0369C58.5017 43.0694 57.8603 43.2731 56.4726 43.5368C55.7838 43.7015 55.0792 43.7926 54.3708 43.8084L54.3829 43.8184ZM37.3351 43.8304C36.9545 43.834 36.5815 43.7248 36.264 43.5168C35.4572 43.0035 35.1406 41.8771 35.5258 40.8985C36.0119 39.5005 39.1565 36.4727 41.7544 34.8849C42.543 34.3477 43.4467 33.7525 44.2494 33.2213C44.5016 33.0535 47.1983 31.3619 47.2145 31.3579C48.705 30.9345 49.3222 31.1462 49.8527 32.2606C50.0847 32.7739 50.0806 33.0216 49.8527 33.3171C49.651 33.5688 48.0092 34.2458 46.4742 34.7851C43.0695 35.9434 41.3994 37.0499 39.0314 39.7141C38.8517 39.9001 38.7108 40.1193 38.6166 40.3591C38.5225 40.599 38.477 40.8549 38.4828 41.1122C38.4842 41.1755 38.499 41.2379 38.526 41.2953C38.5531 41.3527 38.592 41.4039 38.6401 41.4457C39.3521 41.975 44.1304 39.82 45.5968 39.1989C47.6066 38.3215 49.5447 37.2912 51.3937 36.1172C52.3054 35.546 53.8989 34.6253 54.3567 34.847C54.3985 34.8675 54.4339 34.8987 54.4595 34.9373C54.485 34.9759 54.4997 35.0206 54.502 35.0667C54.502 35.1306 54.5019 35.3003 53.5499 36.0533C51.305 38.0006 48.5074 39.5104 45.8973 40.9644C43.0513 42.3464 39.7313 43.5408 38.1681 43.7465C37.8969 43.7992 37.6215 43.8285 37.3452 43.8344L37.3351 43.8304ZM16.8663 43.8304C16.5308 43.8588 16.1943 43.7894 15.8982 43.6307C14.9764 43.0315 15.3153 42.1487 15.6541 41.5376C16.3459 40.2993 19.2283 37.6531 20.5999 36.6405L21.5761 35.9135C22.036 35.5919 22.4777 35.3143 22.7984 35.1026C23.9844 34.3397 25.2188 33.6147 26.3826 32.8198C27.6822 32.0532 29.0413 31.39 30.447 30.8366C30.8484 30.7308 31.2619 30.6758 31.6773 30.6728C32.4599 30.7268 32.7443 30.8945 32.8089 31.3399C32.8714 31.8252 32.5648 32.1647 30.7535 33.6087C30.4631 33.8364 29.5574 34.2079 28.8152 34.4775C27.1431 35.0227 24.1538 36.4747 22.7782 37.3974C21.4026 38.3201 19.2505 40.4052 19.2162 40.6788C19.2162 40.7926 19.2525 40.8126 19.2646 40.8186C19.5086 40.9524 20.6301 40.2873 21.5821 39.6922C22.2478 39.2927 23.0223 38.9053 23.6556 38.4759C24.3937 37.9864 25.101 37.4528 25.7735 36.8781C28.2484 34.7931 29.0713 34.4336 29.7793 35.1246C30.1424 35.4781 30.1444 35.6319 29.7914 36.1491C29.6139 36.4907 28.7285 37.5112 27.9761 38.2921C26.2515 40.0776 25.6646 40.9045 25.8138 41.3419C25.8439 41.4011 25.8859 41.4537 25.9372 41.4963C25.9885 41.5389 26.0482 41.5706 26.1124 41.5895C26.5299 41.7373 27.25 41.5895 28.085 41.1901C28.5025 40.9664 29.1843 40.6409 29.7874 40.3533C30.0476 40.2294 30.2896 40.1136 30.4873 40.0157C32.4095 38.9991 37.1435 36.1751 37.678 35.7637C38.154 35.3842 38.8519 35.3023 39.0899 35.5041C39.1363 35.5436 39.1662 35.5989 39.1737 35.6591C39.1811 35.7193 39.1656 35.7801 39.1302 35.8296C38.9285 36.1432 37.7889 36.9161 36.1975 37.9826C34.9469 38.8234 33.529 39.7801 32.2804 40.7068C29.1883 43.0595 26.4109 44.122 24.4645 43.7026C24.0817 43.6324 23.7197 43.4779 23.4055 43.2504C23.0912 43.0229 22.8327 42.7283 22.6491 42.3884C22.3627 41.8292 22.3627 41.8292 21.683 42.1627C21.2184 42.386 20.7659 42.6333 20.3276 42.9037C19.5208 43.4349 17.9515 43.8563 16.8744 43.8563L16.8663 43.8304ZM12.5318 26.0553C12.5123 26.0644 12.492 26.0717 12.4713 26.0773C11.1743 26.3929 10.5369 27.6391 11.8803 28.1204C10.4199 32.0269 8.34443 37.1737 7.26129 42.0628C6.98697 43.3051 4.16516 53.0335 6.29514 53.0335C7.06362 53.0335 7.28146 52.4682 7.43677 51.8012C7.84017 50.521 7.86841 49.4045 8.0681 48.0824C9.09073 41.4118 12.1021 32.8058 14.5226 27.3914L14.7243 27.3076C14.8211 27.2676 14.926 27.2297 15.0147 27.1957C16.2754 26.7583 17.2919 26.3629 18.6212 26.0254C19.192 25.8916 19.7567 25.7757 20.2973 25.6818C22.1469 25.3623 23.6577 25.1785 25.5153 24.9668C26.4606 24.8751 27.412 24.8631 28.3593 24.9309C28.6908 24.9198 29.021 24.9762 29.3295 25.0967L29.7612 25.2744L29.9629 25.4482C30.5337 25.9235 30.1827 26.3948 31.5765 26.4468C32.3308 26.4468 32.4862 25.4761 32.2945 24.9509C32.0101 24.1959 31.6612 23.9902 31.0521 23.4849C30.4496 23.1984 29.8071 23.0032 29.146 22.9057C28.9242 22.8827 28.7012 22.8741 28.4783 22.8798L25.7029 22.9177C22.42 23.162 19.1736 23.7593 16.0212 24.6992C15.9059 24.7422 15.7862 24.7723 15.6642 24.7891L15.7368 24.6293C16.2935 23.3791 21.3502 13.2932 21.3623 13.1814C21.3884 13.1173 21.3999 13.0483 21.3961 12.9792C21.3923 12.9102 21.3732 12.8428 21.3401 12.7819L21.4793 12.75C23.6274 12.2447 26.0236 11.6495 28.202 11.3519L37.3774 10.0098L47.0591 9.30681C48.6728 9.25089 50.5183 9.10711 52.1501 9.12109C54.508 9.07116 61.0512 9.32082 63.8125 9.75221C64.3188 9.8321 66.6364 9.886 66.3983 8.88141C66.4286 8.46799 65.7832 8.14047 64.3168 7.82691C57.0394 6.4069 45.3911 7.15983 38.043 7.86284C34.4306 8.31022 30.8282 8.80952 27.252 9.49057C26.3705 9.64235 25.4911 9.80613 24.6299 9.9759C23.7686 10.1457 22.8952 10.3574 22.0299 10.591C15.6283 12.0015 9.36373 13.9642 3.30793 16.4568C2.40027 16.8263 1.35948 17.1039 0.65756 17.7889C0.229952 18.2203 -0.11093 18.8295 0.0726188 19.5604C0.459887 21.1702 1.70237 21.4638 3.03764 21.1402C3.23935 21.0583 3.77788 20.607 3.76377 20.3993C3.68914 19.5145 2.49708 20.1716 2.38009 19.2169C2.79358 18.8175 5.20392 17.8768 5.84735 17.6191C8.59857 16.5107 11.5616 15.5181 14.4056 14.6673C15.8861 14.2239 17.4432 13.7885 19.0447 13.3731C16.5295 16.8822 14.3471 22.021 12.5418 26.0593L12.5318 26.0553Z" fill="white" stroke="white" stroke-width="0.22" stroke-miterlimit="2.61"/>
</g>
<defs>
<clipPath id="clip0_1309_929">
<rect width="164" height="57" fill="white" transform="translate(0 2)"/>
</clipPath>
</defs>
</svg>
