<svg width="147" height="42" viewBox="0 0 147 42" fill="none" xmlns="http://www.w3.org/2000/svg">
<path d="M78.8262 30.7618C77.3401 31.6378 76.2318 33.0218 75.8286 35.1206C75.7719 35.3485 75.8007 35.5885 75.9098 35.7977C76.0189 36.007 76.2012 36.1718 76.4242 36.2628C76.6472 36.3538 76.8963 36.365 77.127 36.2944C77.3577 36.2238 77.555 36.076 77.6836 35.8774C78.5604 34.6511 79.4174 33.4247 80.2726 32.1984C85.2968 29.4759 100.069 33.3179 105.403 35.4026C106.614 35.8774 107.14 33.9748 105.945 33.507C100.305 31.2996 94.2154 30.0768 88.1714 29.4952C86.2243 29.3077 84.0421 29.2569 82.0516 29.6265C84.9244 25.4517 87.837 21.2926 91.2485 17.5277C93.7945 14.6987 96.66 12.1554 99.7911 9.94538C101.223 8.94153 103.203 7.60657 105.293 6.73762C107.525 6.87655 109.764 6.86309 111.995 6.69733C113.427 6.5817 113.904 5.47096 112.899 4.8683C110.384 3.38092 107.489 3.62443 104.627 4.72989C94.774 4.06766 85.0781 1.22606 75.1796 2.16509C73.8905 2.28948 73.8779 4.25689 75.1796 4.1325C83.9481 3.29508 92.5611 5.43417 101.266 6.39422C97.7228 8.49654 94.4938 11.4556 92.4273 13.4422C87.0975 18.5701 83.0025 24.7264 78.8352 30.7671L78.8262 30.7618ZM117.155 21.1262C118.196 20.6549 118.545 20.6549 118.751 21.1262C118.89 21.396 118.614 21.7306 118.127 22.1353C117.71 22.5383 117.364 22.8746 117.433 22.8746C117.502 22.9429 118.406 23.211 118.474 23.9521C118.682 25.1644 119.237 24.3568 122.781 23.211C123.822 22.8746 124.724 22.808 125.003 22.8746C125.489 23.0095 124.724 23.4142 123.195 24.2884L121.667 25.0295C121.528 25.1644 120.416 25.7022 119.722 26.0386C118.473 26.7113 117.778 26.9811 117.223 27.4524C116.111 28.4615 114.999 29.4706 114.444 29.8753C113.889 30.28 113.334 30.683 113.125 30.8844C112.291 31.6921 110.001 32.7012 109.026 32.7012C107.708 32.7012 107.29 32.5663 107.014 31.8935C106.527 30.6146 108.957 26.9128 111.534 24.9612C112.438 24.2219 113.269 23.6157 113.477 23.4825C113.954 23.0183 116.867 21.2856 117.158 21.1262H117.155ZM113.126 26.0316C112.571 26.0316 110.002 29.7334 110.349 30.061C110.626 30.3291 112.501 29.32 113.681 28.1759C114.238 27.6381 114.723 27.1003 114.723 26.9654C114.723 26.8305 114.378 26.5607 113.96 26.3592C113.713 26.1849 113.428 26.0696 113.126 26.0228V26.0316ZM142.314 23.3441C141.822 23.4562 140.472 24.122 139.26 24.8613C137.796 25.7933 136.248 27.0862 136.006 27.4489C137.113 26.9817 138.187 26.445 139.222 25.8424C140.755 24.9804 142.312 23.6647 142.317 23.3441H142.314ZM134.319 33.2968C133.509 33.3191 132.718 33.0642 132.083 32.5768C131.522 32.1773 131.289 31.904 131.213 31.4573H131.199C125.833 33.9731 125.393 30.3343 126.679 27.0494C123.786 29.2253 120.159 32.3893 119.447 32.4121C115.235 32.5417 125.724 22.7642 126.485 21.8024C126.534 21.6876 126.608 21.5842 126.701 21.499C126.794 21.4138 126.905 21.3489 127.027 21.3084C127.148 21.268 127.277 21.2531 127.404 21.2645C127.532 21.276 127.656 21.3136 127.767 21.375C127.997 21.512 128.165 21.727 128.24 21.978C128.315 22.2291 128.291 22.4981 128.172 22.7327C127.646 23.4212 127.122 24.0572 126.599 24.6598C127.069 24.341 127.57 24.0169 128.112 23.6858H128.076C130.221 22.4962 130.575 24.1395 129.342 26.3557C129.069 26.8497 127.608 29.4969 128.004 30.252C128.727 30.6777 131.62 28.9608 132.605 28.3634C132.77 28.2022 132.967 28.013 133.191 27.8063C134.71 26.3824 136.36 25.0964 138.121 23.9643C138.461 23.7401 141.542 21.9969 142.383 21.7954C142.874 21.7008 143.791 21.5221 144.382 21.8095C144.539 21.8866 144.671 22.004 144.765 22.1488C144.858 22.2937 144.908 22.4605 144.91 22.6311C144.91 23.2688 144.044 24.3532 142.804 25.259C141.457 26.2488 139.078 27.5803 136.277 28.9118C134.487 29.7877 134.288 30.1381 134.2 30.5831C134.192 30.7307 134.215 30.8784 134.267 31.0172C134.32 31.156 134.401 31.2831 134.505 31.3907C134.67 31.4958 135.212 31.7061 136.651 31.3312C138.982 30.7111 141.203 29.753 143.238 28.4896C144.286 27.8273 145.98 26.8532 146.389 26.7061C146.619 26.6097 146.769 26.5957 146.872 26.6605C146.912 26.6913 146.943 26.7314 146.963 26.777C146.983 26.8226 146.991 26.8723 146.986 26.9216C146.986 27.512 142.285 30.6532 139.991 31.7166C138.027 32.6223 137.46 32.801 136.207 33.0323C135.59 33.1767 134.959 33.2566 134.325 33.2705L134.319 33.2968ZM56.7585 23.3511C56.2667 23.4633 54.9144 24.129 53.7031 24.8683C52.2386 25.8003 50.6928 27.0933 50.4488 27.4559C51.5551 26.9886 52.6289 26.452 53.6633 25.8494C55.1982 24.9874 56.7549 23.6717 56.7603 23.3511H56.7585ZM48.7457 33.2968C47.9365 33.3195 47.1451 33.0644 46.5111 32.5768C45.7879 32.0617 45.6071 31.7551 45.6071 31.0158C45.6071 30.6409 45.7011 30.3028 45.9524 29.7667C46.2037 29.2306 46.4695 28.8907 47.6103 27.8238C49.1302 26.4004 50.7811 25.1144 52.5424 23.9818C52.8841 23.7558 56.5958 21.855 56.8037 21.8129C57.2954 21.7183 58.2121 21.5397 58.7924 21.827C58.95 21.9037 59.0827 22.0209 59.1761 22.1658C59.2695 22.3108 59.3201 22.4778 59.3221 22.6486C59.3221 23.2863 58.4561 24.3708 57.2141 25.2765C55.8672 26.2663 53.4897 27.5978 50.6892 28.9293C48.8976 29.8052 48.7005 30.1556 48.6119 30.6006C48.6039 30.7482 48.6269 30.8959 48.6794 31.0347C48.7319 31.1735 48.8129 31.3006 48.9174 31.4082C49.0802 31.5134 49.6244 31.7236 51.0635 31.3487C53.3942 30.7286 55.6147 29.7706 57.6498 28.5071C58.6984 27.8448 60.3906 26.8708 60.7992 26.7236C61.0306 26.6272 61.1807 26.6132 61.282 26.678C61.3225 26.7084 61.3545 26.7484 61.3747 26.794C61.3949 26.8397 61.4028 26.8896 61.3977 26.9391C61.3977 27.5295 56.697 30.6707 54.4027 31.7341C52.4375 32.6398 51.8626 32.8185 50.6187 33.0498C50.0014 33.1943 49.3698 33.2742 48.7348 33.2881L48.7457 33.2968ZM33.465 33.3074C33.1238 33.3105 32.7895 33.2147 32.505 33.0323C31.7818 32.582 31.4979 31.594 31.8433 30.7355C32.279 29.5092 35.0975 26.8532 37.4262 25.4605C38.1331 24.9892 38.943 24.4671 39.6626 24.0011C39.8886 23.8539 42.3058 22.3701 42.3203 22.3666C43.6563 21.9951 44.2096 22.1809 44.6851 23.1584C44.893 23.6087 44.8893 23.8259 44.6851 24.0852C44.5043 24.3059 43.0326 24.8998 41.6568 25.3729C38.6049 26.389 37.108 27.3595 34.9855 29.6966C34.8244 29.8597 34.6981 30.052 34.6137 30.2624C34.5293 30.4728 34.4885 30.6973 34.4937 30.923C34.495 30.9785 34.5082 31.0332 34.5325 31.0836C34.5568 31.134 34.5916 31.1789 34.6347 31.2155C35.2729 31.6798 39.5559 29.7895 40.8703 29.2446C42.6718 28.475 44.409 27.5712 46.0663 26.5414C46.8835 26.0403 48.3118 25.2327 48.7222 25.4272C48.7596 25.4452 48.7914 25.4725 48.8143 25.5064C48.8372 25.5403 48.8503 25.5795 48.8524 25.6199C48.8524 25.676 48.8524 25.8249 47.999 26.4853C45.9868 28.1935 43.4792 29.5179 41.1397 30.7933C38.5887 32.0057 35.6128 33.0533 34.2117 33.2338C33.9685 33.28 33.7217 33.3057 33.474 33.3108L33.465 33.3074ZM15.118 33.3074C14.8173 33.3323 14.5156 33.2714 14.2502 33.1322C13.424 32.6066 13.7277 31.8322 14.0314 31.2961C14.6516 30.2099 17.2351 27.8886 18.4645 27.0004L19.3395 26.3627C19.7517 26.0806 20.1477 25.8371 20.4352 25.6514C21.4982 24.9822 22.6047 24.3462 23.6479 23.649C24.8127 22.9765 26.0309 22.3947 27.2909 21.9093C27.6507 21.8165 28.0213 21.7682 28.3937 21.7657C29.0952 21.813 29.3501 21.9601 29.408 22.3508C29.464 22.7765 29.1892 23.0743 27.5657 24.341C27.3053 24.5407 26.4936 24.8666 25.8282 25.1031C24.3295 25.5813 21.6501 26.855 20.4171 27.6644C19.1841 28.4738 17.255 30.3028 17.2243 30.5428C17.2243 30.6427 17.2568 30.6602 17.2676 30.6654C17.4864 30.7828 18.4916 30.1994 19.345 29.6773C19.9416 29.327 20.6358 28.9871 21.2035 28.6104C21.8651 28.1811 22.4991 27.713 23.1019 27.2089C25.3202 25.3799 26.0579 25.0645 26.6924 25.6707C27.0179 25.9808 27.0197 26.1157 26.7033 26.5694C26.5442 26.869 25.7505 27.7642 25.0761 28.4492C23.5303 30.0155 23.0042 30.7408 23.138 31.1244C23.1649 31.1764 23.2026 31.2226 23.2486 31.2599C23.2946 31.2973 23.3481 31.3251 23.4056 31.3417C23.7798 31.4713 24.4253 31.3417 25.1738 30.9913C25.548 30.7951 26.1591 30.5095 26.6997 30.2572C26.9329 30.1486 27.1498 30.047 27.327 29.9612C29.05 29.0694 33.2932 26.5922 33.7723 26.2313C34.199 25.8984 34.8246 25.8266 35.0379 26.0036C35.0795 26.0383 35.1063 26.0868 35.113 26.1396C35.1197 26.1924 35.1058 26.2457 35.074 26.2891C34.8932 26.5642 33.8718 27.2422 32.4453 28.1777C31.3244 28.9153 30.0534 29.7544 28.9343 30.5673C26.1627 32.6311 23.6732 33.5631 21.9285 33.1952C21.5854 33.1337 21.261 32.9981 20.9793 32.7986C20.6976 32.599 20.4659 32.3406 20.3014 32.0424C20.0446 31.5519 20.0446 31.5519 19.4354 31.8445C19.0189 32.0403 18.6134 32.2573 18.2204 32.4945C17.4973 32.9605 16.0907 33.3301 15.1252 33.3301L15.118 33.3074ZM11.2327 17.7152C11.2153 17.7232 11.1971 17.7296 11.1785 17.7345C10.016 18.0113 9.44469 19.1045 10.6488 19.5267C9.33983 22.9535 7.47946 27.4682 6.50859 31.7569C6.26271 32.8466 3.73341 41.3802 5.64259 41.3802C6.33142 41.3802 6.52667 40.8844 6.66588 40.2993C7.02747 39.1763 7.05278 38.197 7.23177 37.0372C8.14839 31.1858 10.8476 23.6367 13.0172 18.8872L13.198 18.8136C13.2848 18.7786 13.3788 18.7453 13.4583 18.7155C14.5883 18.3319 15.4995 17.985 16.6909 17.6889C17.2026 17.5715 17.7088 17.4699 18.1933 17.3876C19.8512 17.1073 21.2053 16.9461 22.8704 16.7604C23.7177 16.6799 24.5705 16.6694 25.4196 16.7289C25.7167 16.7191 26.0127 16.7686 26.2893 16.8743L26.6762 17.0302L26.857 17.1826C27.3686 17.5996 27.054 18.013 28.3033 18.0586C28.9795 18.0586 29.1187 17.2071 28.9469 16.7464C28.692 16.0841 28.3792 15.9037 27.8332 15.4604C27.2932 15.2091 26.7173 15.0379 26.1247 14.9524C25.926 14.9322 25.7261 14.9246 25.5263 14.9296L23.0386 14.9629C20.0959 15.1771 17.1861 15.7011 14.3605 16.5256C14.2571 16.5633 14.1498 16.5897 14.0405 16.6045L14.1056 16.4643C14.6046 15.3676 19.1371 6.52037 19.1479 6.42226C19.1713 6.36602 19.1817 6.30548 19.1782 6.24493C19.1748 6.18438 19.1576 6.12529 19.128 6.07188L19.2528 6.04384C21.1782 5.6006 23.3261 5.07853 25.2786 4.81749L33.5029 3.6402L42.1811 3.02352C43.6274 2.97446 45.2817 2.84834 46.7443 2.8606C48.8578 2.8168 54.7227 3.0358 57.1978 3.41422C57.6516 3.48429 59.7289 3.53158 59.5156 2.65036C59.5427 2.28771 58.9642 2.00041 57.6498 1.72535C51.1267 0.479734 40.6859 1.1402 34.0996 1.75688C30.8615 2.14931 27.6326 2.5873 24.4271 3.1847C23.637 3.31785 22.8488 3.46152 22.0768 3.61043C21.3048 3.75934 20.5219 3.94504 19.7463 4.15002C14.0083 5.38725 8.3931 7.10896 2.96503 9.29543C2.15146 9.61953 1.21856 9.86306 0.589399 10.464C0.206115 10.8424 -0.0994309 11.3767 0.0650917 12.0179C0.412216 13.43 1.52591 13.6875 2.72277 13.4037C2.90356 13.3319 3.38628 12.9359 3.37362 12.7537C3.30673 11.9776 2.23824 12.554 2.13338 11.7166C2.504 11.3662 4.66449 10.541 5.24122 10.315C7.70726 9.34272 10.3631 8.47203 12.9123 7.72571C14.2393 7.33678 15.6351 6.95486 17.0706 6.59046C14.8161 9.6686 12.8599 14.1763 11.2418 17.7187L11.2327 17.7152Z" fill="url(#paint0_linear_202_270)" stroke="url(#paint1_linear_202_270)" stroke-width="0.22" stroke-miterlimit="2.61"/>
<defs>
<linearGradient id="paint0_linear_202_270" x1="38.545" y1="3.95887" x2="45.7068" y2="47.8539" gradientUnits="userSpaceOnUse">
<stop stop-color="#D0B86F"/>
<stop offset="1" stop-color="#BD9436"/>
</linearGradient>
<linearGradient id="paint1_linear_202_270" x1="38.545" y1="3.95887" x2="45.7068" y2="47.8539" gradientUnits="userSpaceOnUse">
<stop stop-color="#D0B86F"/>
<stop offset="1" stop-color="#BD9436"/>
</linearGradient>
</defs>
</svg>
