<svg width="164" height="48" viewBox="0 0 164 48" fill="none" xmlns="http://www.w3.org/2000/svg">
<path d="M87.9421 34.9285C86.2841 35.9271 85.0477 37.5048 84.5979 39.8975C84.5346 40.1573 84.5667 40.4309 84.6884 40.6694C84.8102 40.908 85.0136 41.0959 85.2623 41.1996C85.5111 41.3033 85.789 41.3161 86.0464 41.2356C86.3038 41.1551 86.5238 40.9866 86.6673 40.7603C87.6456 39.3622 88.6017 37.9642 89.5557 36.5661C95.161 33.4625 111.642 37.8424 117.592 40.219C118.944 40.7603 119.531 38.5913 118.197 38.058C111.904 35.5416 105.111 34.1476 98.3681 33.4845C96.1957 33.2708 93.7612 33.2129 91.5405 33.6343C94.7455 28.8749 97.9949 24.1336 101.801 19.8416C104.641 16.6166 107.838 13.7171 111.331 11.1977C112.929 10.0533 115.138 8.5315 117.469 7.54089C119.96 7.69927 122.458 7.68392 124.946 7.49496C126.544 7.36314 127.076 6.0969 125.955 5.40987C123.149 3.71425 119.92 3.99185 116.727 5.25208C105.734 4.49714 94.917 1.25771 83.8738 2.32821C82.4356 2.47001 82.4215 4.71286 83.8738 4.57106C93.6563 3.6164 103.265 6.05496 112.977 7.14942C109.024 9.54606 105.422 12.9193 103.116 15.1842C97.17 21.03 92.6014 28.0481 87.9522 34.9344L87.9421 34.9285ZM130.703 23.9439C131.865 23.4066 132.254 23.4066 132.484 23.9439C132.639 24.2514 132.331 24.6329 131.788 25.0943C131.322 25.5536 130.937 25.9371 131.014 25.9371C131.09 26.015 132.099 26.3205 132.175 27.1653C132.407 28.5474 133.027 27.6267 136.98 26.3205C138.142 25.9371 139.148 25.8612 139.459 25.9371C140.001 26.0909 139.148 26.5522 137.442 27.5488L135.737 28.3936C135.582 28.5474 134.342 29.1605 133.567 29.544C132.173 30.3109 131.399 30.6185 130.78 31.1557C129.539 32.3061 128.299 33.4565 127.679 33.9179C127.06 34.3792 126.441 34.8386 126.207 35.0682C125.277 35.989 122.722 37.1393 121.634 37.1393C120.164 37.1393 119.698 36.9856 119.389 36.2186C118.847 34.7607 121.558 30.5406 124.432 28.3157C125.441 27.4729 126.368 26.7819 126.6 26.6301C127.133 26.1008 130.382 24.1256 130.707 23.9439H130.703ZM126.209 29.536C125.59 29.536 122.724 33.7561 123.111 34.1296C123.419 34.4351 125.511 33.2848 126.828 31.9806C127.45 31.3674 127.99 30.7543 127.99 30.6005C127.99 30.4467 127.605 30.1392 127.139 29.9095C126.864 29.7108 126.545 29.5794 126.209 29.526V29.536ZM158.772 26.4723C158.223 26.6001 156.716 27.3591 155.365 28.2019C153.731 29.2644 152.005 30.7383 151.734 31.1517C152.969 30.6191 154.168 30.0073 155.323 29.3203C157.033 28.3377 158.77 26.8378 158.776 26.4723H158.772ZM149.853 37.8184C148.949 37.8438 148.066 37.5532 147.357 36.9975C146.732 36.5422 146.472 36.2306 146.387 35.7213H146.371C140.385 38.5893 139.895 34.4411 141.329 30.6964C138.101 33.1769 134.055 36.7838 133.261 36.8098C128.561 36.9576 140.264 25.8112 141.113 24.7148C141.167 24.5839 141.249 24.466 141.354 24.3689C141.458 24.2718 141.582 24.1977 141.717 24.1516C141.852 24.1055 141.996 24.0885 142.138 24.1016C142.281 24.1146 142.418 24.1575 142.543 24.2275C142.799 24.3837 142.987 24.6288 143.071 24.915C143.154 25.2011 143.127 25.5078 142.995 25.7753C142.408 26.5602 141.823 27.2852 141.24 27.9722C141.764 27.6087 142.323 27.2392 142.928 26.8618H142.888C145.28 25.5057 145.675 27.379 144.3 29.9055C143.995 30.4687 142.365 33.4865 142.807 34.3473C143.614 34.8326 146.841 32.8753 147.94 32.1943C148.124 32.0105 148.344 31.7949 148.594 31.5592C150.288 29.936 152.13 28.4699 154.094 27.1793C154.474 26.9237 157.911 24.9365 158.848 24.7068C159.397 24.5989 160.42 24.3952 161.079 24.7228C161.255 24.8107 161.402 24.9445 161.506 25.1097C161.61 25.2748 161.666 25.4649 161.668 25.6595C161.668 26.3864 160.702 27.6227 159.318 28.6552C157.816 29.7837 155.161 31.3015 152.037 32.8194C150.04 33.818 149.818 34.2174 149.719 34.7247C149.711 34.893 149.736 35.0614 149.795 35.2196C149.853 35.3779 149.944 35.5227 150.06 35.6454C150.244 35.7653 150.849 36.0049 152.455 35.5775C155.055 34.8706 157.532 33.7785 159.803 32.3381C160.972 31.5832 162.862 30.4727 163.318 30.3049C163.574 30.1951 163.742 30.1791 163.857 30.253C163.901 30.2881 163.936 30.3338 163.959 30.3858C163.981 30.4377 163.989 30.4944 163.984 30.5506C163.984 31.2236 158.74 34.8046 156.18 36.0169C153.989 37.0495 153.356 37.2532 151.958 37.5168C151.27 37.6814 150.566 37.7725 149.859 37.7884L149.853 37.8184ZM63.3223 26.4803C62.7737 26.6081 61.265 27.3671 59.9136 28.2099C58.2798 29.2724 56.5552 30.7463 56.2829 31.1597C57.5172 30.627 58.7152 30.0152 59.8692 29.3283C61.5816 28.3457 63.3183 26.8458 63.3243 26.4803H63.3223ZM54.3829 37.8184C53.4802 37.8442 52.5972 37.5535 51.8899 36.9975C51.083 36.4104 50.8813 36.0609 50.8813 35.218C50.8813 34.7906 50.9862 34.4052 51.2666 33.794C51.5469 33.1829 51.8435 32.7954 53.1162 31.5791C54.8119 29.9564 56.6537 28.4904 58.6186 27.1993C58.9999 26.9416 63.1408 24.7747 63.3728 24.7268C63.9214 24.6189 64.944 24.4152 65.5915 24.7427C65.7672 24.8302 65.9153 24.9639 66.0195 25.1291C66.1238 25.2943 66.1801 25.4847 66.1825 25.6794C66.1825 26.4064 65.2163 27.6427 63.8306 28.6752C62.3279 29.8036 59.6756 31.3215 56.5512 32.8394C54.5523 33.838 54.3325 34.2374 54.2336 34.7447C54.2247 34.913 54.2503 35.0813 54.3089 35.2396C54.3675 35.3978 54.4579 35.5427 54.5745 35.6654C54.756 35.7852 55.3632 36.0249 56.9687 35.5975C59.569 34.8906 62.0463 33.7984 64.3167 32.3581C65.4866 31.6031 67.3745 30.4927 67.8304 30.3249C68.0885 30.2151 68.256 30.1991 68.3689 30.273C68.4142 30.3076 68.4498 30.3531 68.4724 30.4052C68.495 30.4573 68.5038 30.5142 68.498 30.5706C68.498 31.2436 63.2537 34.8246 60.6941 36.0369C58.5016 37.0694 57.8602 37.2731 56.4725 37.5368C55.7838 37.7015 55.0792 37.7926 54.3708 37.8084L54.3829 37.8184ZM37.335 37.8304C36.9544 37.834 36.5814 37.7248 36.264 37.5168C35.4572 37.0035 35.1405 35.8771 35.5257 34.8985C36.0119 33.5005 39.1564 30.4727 41.7543 28.8849C42.543 28.3477 43.4466 27.7525 44.2494 27.2213C44.5015 27.0535 47.1983 25.3619 47.2144 25.3579C48.705 24.9345 49.3222 25.1462 49.8526 26.2606C50.0846 26.7739 50.0806 27.0216 49.8526 27.3171C49.6509 27.5688 48.0091 28.2458 46.4741 28.7851C43.0694 29.9434 41.3993 31.0499 39.0313 33.7141C38.8516 33.9001 38.7107 34.1193 38.6166 34.3591C38.5224 34.599 38.4769 34.8549 38.4827 35.1122C38.4842 35.1755 38.4989 35.2379 38.526 35.2953C38.5531 35.3527 38.5919 35.4039 38.64 35.4457C39.352 35.975 44.1304 33.82 45.5967 33.1989C47.6066 32.3215 49.5447 31.2912 51.3937 30.1172C52.3054 29.546 53.8988 28.6253 54.3567 28.847C54.3984 28.8675 54.4339 28.8987 54.4594 28.9373C54.4849 28.9759 54.4996 29.0206 54.5019 29.0667C54.5019 29.1306 54.5019 29.3003 53.5499 30.0533C51.3049 32.0006 48.5073 33.5104 45.8973 34.9644C43.0513 36.3464 39.7312 37.5408 38.168 37.7465C37.8968 37.7992 37.6215 37.8285 37.3451 37.8344L37.335 37.8304ZM16.8663 37.8304C16.5308 37.8588 16.1942 37.7894 15.8981 37.6307C14.9763 37.0315 15.3152 36.1487 15.654 35.5376C16.3459 34.2993 19.2282 31.6531 20.5998 30.6405L21.576 29.9135C22.0359 29.5919 22.4776 29.3143 22.7983 29.1026C23.9844 28.3397 25.2188 27.6147 26.3826 26.8198C27.6821 26.0532 29.0412 25.39 30.4469 24.8366C30.8484 24.7308 31.2618 24.6758 31.6773 24.6728C32.4599 24.7268 32.7443 24.8945 32.8088 25.3399C32.8713 25.8252 32.5648 26.1647 30.7535 27.6087C30.463 27.8364 29.5574 28.2079 28.8151 28.4775C27.143 29.0227 24.1538 30.4747 22.7782 31.3974C21.4026 32.3201 19.2504 34.4052 19.2161 34.6788C19.2161 34.7926 19.2524 34.8126 19.2645 34.8186C19.5086 34.9524 20.63 34.2873 21.5821 33.6922C22.2477 33.2927 23.0222 32.9053 23.6556 32.4759C24.3937 31.9864 25.1009 31.4528 25.7735 30.8781C28.2483 28.7931 29.0713 28.4336 29.7793 29.1246C30.1423 29.4781 30.1443 29.6319 29.7914 30.1491C29.6139 30.4907 28.7284 31.5112 27.976 32.2921C26.2515 34.0776 25.6645 34.9045 25.8138 35.3419C25.8438 35.4011 25.8858 35.4537 25.9371 35.4963C25.9885 35.5389 26.0481 35.5706 26.1123 35.5895C26.5298 35.7373 27.2499 35.5895 28.085 35.1901C28.5025 34.9664 29.1842 34.6409 29.7873 34.3533C30.0475 34.2294 30.2896 34.1136 30.4872 34.0157C32.4095 32.9991 37.1434 30.1751 37.6779 29.7637C38.1539 29.3842 38.8518 29.3023 39.0898 29.5041C39.1363 29.5436 39.1661 29.5989 39.1736 29.6591C39.1811 29.7193 39.1656 29.7801 39.1302 29.8296C38.9285 30.1432 37.7889 30.9161 36.1974 31.9826C34.9469 32.8234 33.5289 33.7801 32.2804 34.7068C29.1883 37.0595 26.4108 38.122 24.4644 37.7026C24.0816 37.6324 23.7197 37.4779 23.4054 37.2504C23.0912 37.0229 22.8327 36.7283 22.6491 36.3884C22.3627 35.8292 22.3627 35.8292 21.6829 36.1627C21.2183 36.386 20.7659 36.6333 20.3275 36.9037C19.5207 37.4349 17.9514 37.8563 16.8743 37.8563L16.8663 37.8304ZM12.5317 20.0553C12.5122 20.0644 12.492 20.0717 12.4712 20.0773C11.1743 20.3929 10.5369 21.6391 11.8802 22.1204C10.4199 26.0269 8.34437 31.1737 7.26123 36.0628C6.98691 37.3051 4.1651 47.0335 6.29508 47.0335C7.06356 47.0335 7.2814 46.4682 7.43671 45.8012C7.84011 44.521 7.86835 43.4045 8.06804 42.0824C9.09066 35.4118 12.1021 26.8058 14.5225 21.3914L14.7242 21.3076C14.821 21.2676 14.9259 21.2297 15.0147 21.1957C16.2753 20.7583 17.2919 20.3629 18.6211 20.0254C19.1919 19.8916 19.7567 19.7757 20.2972 19.6818C22.1468 19.3623 23.6576 19.1785 25.5153 18.9668C26.4605 18.8751 27.4119 18.8631 28.3593 18.9309C28.6907 18.9198 29.0209 18.9762 29.3295 19.0967L29.7611 19.2744L29.9628 19.4482C30.5336 19.9235 30.1827 20.3948 31.5764 20.4468C32.3308 20.4468 32.4861 19.4761 32.2945 18.9509C32.0101 18.1959 31.6611 17.9902 31.052 17.4849C30.4495 17.1984 29.807 17.0032 29.1459 16.9057C28.9242 16.8827 28.7012 16.8741 28.4783 16.8798L25.7029 16.9177C22.4199 17.162 19.1735 17.7593 16.0211 18.6992C15.9059 18.7422 15.7861 18.7723 15.6641 18.7891L15.7368 18.6293C16.2935 17.3791 21.3501 7.29323 21.3622 7.18138C21.3883 7.11727 21.3999 7.04825 21.396 6.97922C21.3922 6.91019 21.3731 6.84284 21.34 6.78194L21.4792 6.74998C23.6273 6.24469 26.0236 5.64952 28.2019 5.35194L37.3774 4.00983L47.0591 3.30681C48.6727 3.25089 50.5183 3.10711 52.15 3.12109C54.5079 3.07116 61.0512 3.32082 63.8125 3.75221C64.3187 3.8321 66.6363 3.886 66.3983 2.88141C66.4285 2.46799 65.7831 2.14047 64.3167 1.82691C57.0393 0.406902 45.391 1.15983 38.043 1.86284C34.4305 2.31022 30.8281 2.80952 27.2519 3.49057C26.3705 3.64235 25.4911 3.80613 24.6298 3.9759C23.7685 4.14566 22.8952 4.35735 22.0299 4.59102C15.6282 6.00147 9.36367 7.96422 3.30787 10.4568C2.40021 10.8263 1.35942 11.1039 0.657499 11.7889C0.22989 12.2203 -0.110991 12.8295 0.0725578 13.5604C0.459826 15.1702 1.70231 15.4638 3.03758 15.1402C3.23928 15.0583 3.77782 14.607 3.7637 14.3993C3.68907 13.5145 2.49702 14.1716 2.38003 13.2169C2.79352 12.8175 5.20386 11.8768 5.84729 11.6191C8.59851 10.5107 11.5615 9.51812 14.4055 8.66731C15.886 8.22393 17.4431 7.78855 19.0447 7.37313C16.5294 10.8822 14.347 16.021 12.5418 20.0593L12.5317 20.0553Z" fill="#333333" stroke="#333333" stroke-width="0.22" stroke-miterlimit="2.61"/>
</svg>
