<svg width="164" height="47" viewBox="0 0 164 47" fill="none" xmlns="http://www.w3.org/2000/svg">
<path d="M87.9422 33.9281C86.2842 34.9267 85.0477 36.5045 84.5979 38.8971C84.5347 39.1569 84.5668 39.4305 84.6885 39.6691C84.8102 39.9076 85.0136 40.0955 85.2624 40.1992C85.5112 40.303 85.789 40.3157 86.0464 40.2352C86.3038 40.1547 86.5239 39.9863 86.6674 39.7599C87.6457 38.3619 88.6017 36.9638 89.5558 35.5658C95.1611 32.4621 111.642 36.842 117.592 39.2187C118.944 39.7599 119.531 37.5909 118.197 37.0577C111.904 34.5412 105.111 33.1472 98.3681 32.4841C96.1958 32.2704 93.7613 32.2125 91.5405 32.6339C94.7456 27.8746 97.995 23.1332 101.801 18.8413C104.642 15.6162 107.838 12.7168 111.332 10.1974C112.929 9.05298 115.138 7.53113 117.469 6.54052C119.96 6.6989 122.458 6.68356 124.946 6.49459C126.544 6.36277 127.076 5.09654 125.955 4.4095C123.149 2.71388 119.92 2.99149 116.727 4.25172C105.734 3.49678 94.917 0.257344 83.8738 1.32784C82.4357 1.46964 82.4216 3.71249 83.8738 3.57069C93.6564 2.61603 103.265 5.05459 112.977 6.14905C109.024 8.54569 105.422 11.919 103.116 14.1838C97.17 20.0296 92.6015 27.0477 87.9522 33.9341L87.9422 33.9281ZM130.703 22.9435C131.865 22.4063 132.254 22.4063 132.484 22.9435C132.639 23.2511 132.331 23.6325 131.788 24.0939C131.322 24.5532 130.937 24.9367 131.014 24.9367C131.09 25.0146 132.099 25.3202 132.175 26.165C132.407 27.547 133.027 26.6263 136.98 25.3202C138.142 24.9367 139.148 24.8608 139.459 24.9367C140.001 25.0905 139.148 25.5518 137.442 26.5484L135.737 27.3933C135.582 27.547 134.342 28.1602 133.567 28.5436C132.173 29.3105 131.399 29.6181 130.78 30.1554C129.539 31.3058 128.299 32.4561 127.679 32.9175C127.06 33.3788 126.441 33.8382 126.207 34.0679C125.277 34.9886 122.722 36.139 121.634 36.139C120.164 36.139 119.698 35.9852 119.39 35.2183C118.847 33.7603 121.558 29.5402 124.432 27.3154C125.441 26.4726 126.368 25.7815 126.6 25.6297C127.133 25.1005 130.382 23.1252 130.707 22.9435H130.703ZM126.209 28.5357C125.59 28.5357 122.724 32.7557 123.111 33.1292C123.42 33.4348 125.511 32.2844 126.828 30.9802C127.45 30.3671 127.99 29.7539 127.99 29.6001C127.99 29.4464 127.605 29.1388 127.139 28.9091C126.864 28.7104 126.545 28.579 126.209 28.5257V28.5357ZM158.772 25.4719C158.223 25.5998 156.717 26.3587 155.365 27.2015C153.731 28.264 152.005 29.738 151.734 30.1514C152.969 29.6187 154.168 29.007 155.323 28.3199C157.033 27.3373 158.77 25.8374 158.776 25.4719H158.772ZM149.853 36.818C148.949 36.8434 148.066 36.5528 147.358 35.9972C146.732 35.5418 146.472 35.2303 146.387 34.721H146.371C140.385 37.5889 139.895 33.4408 141.329 29.696C138.101 32.1765 134.055 35.7835 133.261 35.8094C128.561 35.9572 140.264 24.8109 141.113 23.7144C141.167 23.5835 141.25 23.4656 141.354 23.3685C141.458 23.2714 141.582 23.1974 141.717 23.1513C141.852 23.1052 141.996 23.0881 142.138 23.1012C142.281 23.1143 142.419 23.1572 142.543 23.2271C142.799 23.3833 142.987 23.6284 143.071 23.9146C143.154 24.2008 143.127 24.5075 142.995 24.7749C142.408 25.5598 141.823 26.2848 141.24 26.9718C141.764 26.6083 142.323 26.2389 142.928 25.8614H142.888C145.28 24.5053 145.675 26.3787 144.3 28.9051C143.995 29.4683 142.365 32.4861 142.807 33.3469C143.614 33.8322 146.841 31.875 147.94 31.1939C148.124 31.0102 148.344 30.7945 148.594 30.5588C150.289 28.9356 152.13 27.4695 154.094 26.179C154.474 25.9233 157.911 23.9361 158.849 23.7064C159.397 23.5986 160.42 23.3949 161.079 23.7224C161.255 23.8104 161.402 23.9442 161.506 24.1093C161.61 24.2744 161.666 24.4646 161.668 24.6591C161.668 25.3861 160.702 26.6223 159.318 27.6549C157.816 28.7833 155.161 30.3012 152.037 31.819C150.04 32.8176 149.818 33.2171 149.719 33.7244C149.711 33.8927 149.736 34.061 149.795 34.2193C149.853 34.3775 149.944 34.5223 150.06 34.6451C150.244 34.7649 150.849 35.0046 152.455 34.5772C155.055 33.8703 157.532 32.7781 159.803 31.3377C160.972 30.5828 162.862 29.4723 163.318 29.3046C163.574 29.1947 163.742 29.1787 163.857 29.2526C163.901 29.2878 163.936 29.3334 163.959 29.3854C163.981 29.4374 163.99 29.4941 163.984 29.5502C163.984 30.2233 158.74 33.8042 156.18 35.0165C153.99 36.0491 153.356 36.2528 151.958 36.5164C151.27 36.6811 150.566 36.7721 149.859 36.7881L149.853 36.818ZM63.3224 25.4799C62.7738 25.6078 61.265 26.3667 59.9136 27.2095C58.2798 28.272 56.5553 29.746 56.283 30.1594C57.5173 29.6266 58.7153 29.0149 59.8692 28.3279C61.5817 27.3453 63.3184 25.8454 63.3244 25.4799H63.3224ZM54.3829 36.818C53.4802 36.8438 52.5973 36.5531 51.8899 35.9972C51.0831 35.41 50.8814 35.0605 50.8814 34.2177C50.8814 33.7903 50.9863 33.4048 51.2666 32.7937C51.547 32.1825 51.8435 31.7951 53.1163 30.5788C54.812 28.9561 56.6538 27.49 58.6187 26.1989C58.9999 25.9413 63.1409 23.7743 63.3728 23.7264C63.9214 23.6185 64.9441 23.4148 65.5915 23.7424C65.7673 23.8299 65.9154 23.9635 66.0196 24.1287C66.1238 24.2939 66.1802 24.4843 66.1825 24.6791C66.1825 25.406 65.2164 26.6423 63.8307 27.6748C62.328 28.8033 59.6756 30.3211 56.5512 31.839C54.5524 32.8376 54.3325 33.237 54.2337 33.7443C54.2248 33.9126 54.2504 34.081 54.309 34.2392C54.3676 34.3975 54.4579 34.5423 54.5746 34.665C54.7561 34.7849 55.3632 35.0245 56.9688 34.5971C59.569 33.8902 62.0464 32.7981 64.3168 31.3577C65.4867 30.6028 67.3746 29.4923 67.8304 29.3245C68.0886 29.2147 68.256 29.1987 68.369 29.2726C68.4143 29.3073 68.4499 29.3528 68.4725 29.4048C68.495 29.4569 68.5038 29.5138 68.4981 29.5702C68.4981 30.2432 63.2538 33.8242 60.6942 35.0365C58.5017 36.0691 57.8603 36.2728 56.4726 36.5364C55.7838 36.7012 55.0792 36.7922 54.3708 36.808L54.3829 36.818ZM37.3351 36.83C36.9545 36.8336 36.5815 36.7244 36.264 36.5164C35.4572 36.0032 35.1406 34.8767 35.5258 33.8981C36.0119 32.5001 39.1565 29.4723 41.7544 27.8846C42.543 27.3473 43.4467 26.7521 44.2494 26.2209C44.5016 26.0531 47.1983 24.3615 47.2145 24.3575C48.705 23.9341 49.3222 24.1458 49.8527 25.2602C50.0847 25.7735 50.0806 26.0212 49.8527 26.3168C49.651 26.5684 48.0092 27.2455 46.4742 27.7847C43.0695 28.9431 41.3994 30.0495 39.0314 32.7138C38.8517 32.8997 38.7108 33.1189 38.6166 33.3588C38.5225 33.5986 38.477 33.8545 38.4828 34.1118C38.4842 34.1752 38.499 34.2375 38.526 34.295C38.5531 34.3524 38.592 34.4036 38.6401 34.4454C39.3521 34.9746 44.1304 32.8196 45.5968 32.1985C47.6066 31.3211 49.5447 30.2908 51.3937 29.1168C52.3054 28.5456 53.8989 27.6249 54.3567 27.8466C54.3985 27.8671 54.4339 27.8983 54.4595 27.9369C54.485 27.9755 54.4997 28.0202 54.502 28.0663C54.502 28.1302 54.5019 28.3 53.5499 29.0529C51.305 31.0002 48.5074 32.5101 45.8973 33.964C43.0513 35.3461 39.7313 36.5404 38.1681 36.7461C37.8969 36.7988 37.6215 36.8282 37.3452 36.834L37.3351 36.83ZM16.8663 36.83C16.5308 36.8585 16.1943 36.789 15.8982 36.6303C14.9764 36.0311 15.3153 35.1484 15.6541 34.5372C16.3459 33.299 19.2283 30.6527 20.5999 29.6401L21.5761 28.9131C22.036 28.5916 22.4777 28.314 22.7984 28.1023C23.9844 27.3393 25.2188 26.6144 26.3826 25.8195C27.6822 25.0528 29.0413 24.3896 30.447 23.8362C30.8484 23.7304 31.2619 23.6754 31.6773 23.6725C32.4599 23.7264 32.7443 23.8942 32.8089 24.3395C32.8714 24.8249 32.5648 25.1644 30.7535 26.6084C30.4631 26.836 29.5574 27.2075 28.8152 27.4771C27.1431 28.0224 24.1538 29.4743 22.7782 30.397C21.4026 31.3197 19.2505 33.4048 19.2162 33.6784C19.2162 33.7923 19.2525 33.8122 19.2646 33.8182C19.5086 33.952 20.6301 33.287 21.5821 32.6918C22.2478 32.2924 23.0223 31.9049 23.6556 31.4755C24.3937 30.986 25.101 30.4525 25.7735 29.8778C28.2484 27.7927 29.0713 27.4332 29.7793 28.1242C30.1424 28.4777 30.1444 28.6315 29.7914 29.1488C29.6139 29.4903 28.7285 30.5109 27.9761 31.2918C26.2515 33.0773 25.6646 33.9041 25.8138 34.3415C25.8439 34.4008 25.8859 34.4533 25.9372 34.4959C25.9885 34.5385 26.0482 34.5703 26.1124 34.5891C26.5299 34.7369 27.25 34.5891 28.085 34.1897C28.5025 33.966 29.1843 33.6405 29.7874 33.3529C30.0476 33.2291 30.2896 33.1132 30.4873 33.0154C32.4095 31.9988 37.1435 29.1748 37.678 28.7633C38.154 28.3839 38.8519 28.302 39.0899 28.5037C39.1363 28.5432 39.1662 28.5985 39.1737 28.6587C39.1811 28.719 39.1656 28.7797 39.1302 28.8292C38.9285 29.1428 37.7889 29.9157 36.1975 30.9822C34.9469 31.823 33.529 32.7797 32.2804 33.7064C29.1883 36.0591 26.4109 37.1216 24.4645 36.7022C24.0817 36.6321 23.7197 36.4775 23.4055 36.25C23.0912 36.0225 22.8327 35.7279 22.6491 35.388C22.3627 34.8288 22.3627 34.8288 21.683 35.1623C21.2184 35.3856 20.7659 35.633 20.3276 35.9033C19.5208 36.4346 17.9515 36.856 16.8744 36.856L16.8663 36.83ZM12.5318 19.055C12.5123 19.064 12.492 19.0714 12.4713 19.0769C11.1743 19.3925 10.5369 20.6387 11.8803 21.1201C10.4199 25.0266 8.34443 30.1733 7.26129 35.0625C6.98697 36.3047 4.16516 46.0331 6.29514 46.0331C7.06362 46.0331 7.28146 45.4679 7.43677 44.8008C7.84017 43.5206 7.86841 42.4042 8.0681 41.082C9.09073 34.4114 12.1021 25.8055 14.5226 20.3911L14.7243 20.3072C14.8211 20.2672 14.926 20.2293 15.0147 20.1954C16.2754 19.758 17.2919 19.3625 18.6212 19.025C19.192 18.8912 19.7567 18.7753 20.2973 18.6815C22.1469 18.3619 23.6577 18.1782 25.5153 17.9665C26.4606 17.8747 27.412 17.8627 28.3593 17.9305C28.6908 17.9194 29.021 17.9758 29.3295 18.0963L29.7612 18.2741L29.9629 18.4478C30.5337 18.9231 30.1827 19.3945 31.5765 19.4464C32.3308 19.4464 32.4862 18.4758 32.2945 17.9505C32.0101 17.1956 31.6612 16.9898 31.0521 16.4845C30.4496 16.198 29.8071 16.0028 29.146 15.9054C28.9242 15.8824 28.7012 15.8737 28.4783 15.8794L25.7029 15.9174C22.42 16.1616 19.1736 16.7589 16.0212 17.6989C15.9059 17.7418 15.7862 17.7719 15.6642 17.7887L15.7368 17.629C16.2935 16.3787 21.3502 6.29286 21.3623 6.18102C21.3884 6.1169 21.3999 6.04789 21.3961 5.97886C21.3923 5.90983 21.3732 5.84247 21.3401 5.78158L21.4793 5.74961C23.6274 5.24432 26.0236 4.64916 28.202 4.35158L37.3774 3.00947L47.0591 2.30645C48.6728 2.25053 50.5183 2.10674 52.1501 2.12072C54.508 2.07079 61.0512 2.32045 63.8125 2.75184C64.3188 2.83173 66.6364 2.88563 66.3983 1.88104C66.4286 1.46762 65.7832 1.1401 64.3168 0.826543C57.0394 -0.593464 45.3911 0.159465 38.043 0.862479C34.4306 1.30985 30.8282 1.80916 27.252 2.4902C26.3705 2.64199 25.4911 2.80577 24.6299 2.97553C23.7686 3.14529 22.8952 3.35698 22.0299 3.59066C15.6283 5.0011 9.36373 6.96385 3.30793 9.45642C2.40027 9.8259 1.35948 10.1035 0.65756 10.7886C0.229952 11.22 -0.11093 11.8291 0.0726188 12.5601C0.459887 14.1698 1.70237 14.4634 3.03764 14.1398C3.23935 14.058 3.77788 13.6066 3.76377 13.3989C3.68914 12.5141 2.49708 13.1712 2.38009 12.2165C2.79358 11.8171 5.20392 10.8764 5.84735 10.6188C8.59857 9.51034 11.5616 8.51775 14.4056 7.66694C15.8861 7.22356 17.4432 6.78818 19.0447 6.37276C16.5295 9.88184 14.3471 15.0206 12.5418 19.0589L12.5318 19.055Z" fill="white" stroke="white" strokeWidth="0.22" stroke-miterlimit="2.61"/>
</svg>
